<svg width="32" height="31" viewBox="0 0 32 31" fill="none" xmlns="http://www.w3.org/2000/svg">
<path d="M7.3535 20.9512V10.0669H23.0796L7.3535 20.9512Z" fill="#1F1F1F"/>
<path d="M27.3015 20.9512H11.8018L27.1858 10.0669C28.1676 14.3235 28.3272 16.6885 27.3015 20.9512Z" fill="#1F1F1F"/>
<path d="M5.96066 23.4632L25.8556 23.4632C25.8556 23.4632 20.6527 28.6235 16.3437 29.7159C11.8661 30.8512 6.01849 31.5601 4.57263 28.5527C3.41594 26.1468 4.93892 24.1572 5.96066 23.4632Z" fill="#1F1F1F"/>
<path d="M5.96056 7.60362H25.6821C25.6821 7.60362 21.3849 2.0469 14.9116 0.672042C8.43828 -0.702816 6.07622 0.0981378 4.57253 2.46935C3.06883 4.84056 4.88098 6.73611 5.96056 7.60362Z" fill="#1F1F1F"/>
</svg>
