<svg width="279" height="47" viewBox="0 0 279 47" fill="none" xmlns="http://www.w3.org/2000/svg">
<path d="M11.6834 31.1023C11.0976 31.2927 10.4294 31.4411 9.67889 31.5476C8.93416 31.6719 8.181 31.7399 7.41941 31.7519C6.65783 31.7638 5.9586 31.7261 5.32172 31.6386L4.64487 27.4718C4.78292 27.1718 5.03834 26.9612 5.41115 26.8401C5.53542 26.7997 5.6537 26.7711 5.76599 26.7542C5.8725 26.7196 5.95816 26.7114 6.02296 26.7296L7.44811 30.3L6.5867 29.4611C7.03406 29.6298 7.52314 29.7456 8.05394 29.8087C8.57897 29.854 9.11022 29.858 9.64768 29.8207C10.1851 29.7835 10.6935 29.687 11.1729 29.5312C12.096 29.2312 12.7669 28.7286 13.1854 28.0234C13.604 27.3182 13.6806 26.5573 13.4152 25.7407C13.2594 25.2614 13.0202 24.8877 12.6976 24.6196C12.3869 24.328 11.9016 24.1029 11.2417 23.9445C10.5937 23.7625 9.67105 23.6109 8.47364 23.4896C7.18791 23.3382 6.12409 23.1147 5.28219 22.8191C4.45803 22.5177 3.80587 22.1114 3.32568 21.6001C2.83973 21.071 2.46695 20.4071 2.20736 19.6082C1.75739 18.2235 1.87617 16.9581 2.56369 15.8122C3.25122 14.6663 4.39386 13.8338 5.99162 13.3146C6.77275 13.0608 7.64175 12.8962 8.59862 12.8208C9.57324 12.7396 10.5057 12.7703 11.396 12.9128L12.19 16.8059C11.8172 16.9271 11.5099 16.9779 11.268 16.9584C11.0261 16.9388 10.8643 16.8638 10.7827 16.7333L9.50994 14.085L10.5651 15.067C10.0716 14.7563 9.45599 14.5834 8.71837 14.5483C7.9985 14.5075 7.27463 14.6053 6.54677 14.8418C5.64137 15.136 5.00336 15.5887 4.63275 16.1998C4.25636 16.7932 4.18643 17.4538 4.42295 18.1816C4.57294 18.6432 4.81214 19.0169 5.14055 19.3028C5.46319 19.5708 5.94849 19.7959 6.59646 19.9779C7.2564 20.1363 8.16444 20.2731 9.32058 20.3881C10.7008 20.5284 11.8208 20.7435 12.6805 21.0333C13.5579 21.3174 14.2455 21.7122 14.7435 22.2177C15.2414 22.7233 15.6231 23.3843 15.8884 24.201C16.2173 25.2129 16.266 26.1784 16.0348 27.0976C15.7977 27.9989 15.3106 28.7951 14.5734 29.4861C13.8539 30.1713 12.8906 30.7101 11.6834 31.1023ZM25.0537 26.8034C23.2926 27.3634 21.7439 27.2976 20.4075 26.6061C19.0832 25.8911 18.141 24.653 17.581 22.8919C17.1568 21.5578 17.0624 20.2754 17.2979 19.0448C17.5512 17.8086 18.0915 16.7358 18.9188 15.8263C19.7582 14.8934 20.845 14.2148 22.1792 13.7906C23.3533 13.4172 24.4436 13.3349 25.4502 13.5437C26.4511 13.7347 27.3215 14.1925 28.0611 14.9171C28.813 15.6182 29.3755 16.5558 29.7489 17.7299C30.1731 19.0641 30.2586 20.3493 30.0053 21.5855C29.7464 22.8039 29.1944 23.8707 28.3493 24.7858C27.5042 25.7009 26.4057 26.3734 25.0537 26.8034ZM25.2577 25.5045C26.2895 25.1764 26.9396 24.4799 27.2083 23.4151C27.489 22.3269 27.3692 20.9645 26.8488 19.3279C26.317 17.6557 25.6312 16.4537 24.7913 15.7218C23.9634 14.9665 23.0425 14.75 22.0286 15.0725C21.0146 15.3949 20.3672 16.1003 20.0865 17.1885C19.8179 18.2533 19.9494 19.6218 20.4812 21.2939C21.0129 22.9661 21.6898 24.171 22.512 24.9085C23.3285 25.6282 24.2437 25.8269 25.2577 25.5045ZM33.0355 23.9643C32.8441 23.2426 32.8807 22.7983 33.1455 22.6315L34.5301 21.6269L34.3401 22.1118L31.8702 12.8019L32.3027 13.1217L30.6396 13.1863C30.3318 13.1907 30.0822 12.832 29.8907 12.1103C30.6511 11.7734 31.2406 11.5205 31.6592 11.3515C32.0779 11.1825 32.4316 11.0597 32.7203 10.9831C33.2796 10.8347 33.71 10.8557 34.0116 11.0461C34.3131 11.2364 34.5405 11.6203 34.6937 12.1976L34.9019 12.9825L34.7721 12.93L35.0698 12.851C35.5761 11.8477 36.2181 10.9918 36.9958 10.2833C37.7734 9.57488 38.5773 9.11057 39.4072 8.89038C40.4176 8.62233 41.2531 8.78693 41.9136 9.38418C42.5875 9.95859 43.1135 10.9585 43.4916 12.3838L45.3225 19.2851L44.89 18.9653L46.737 18.9388C46.8184 19.2455 46.8469 19.4987 46.8226 19.6982C46.7983 19.8978 46.7223 20.1208 46.5945 20.3671L41.3171 21.7672C41.1256 21.0455 41.1622 20.6013 41.427 20.4345L42.557 19.6712L42.367 20.1561L40.5864 13.4443C40.1412 11.7663 39.3323 11.0829 38.1595 11.394C37.7084 11.5137 37.2837 11.7326 36.8853 12.0507C36.4869 12.3689 36.1479 12.7292 35.8685 13.1316C35.5842 13.516 35.3769 13.8994 35.2465 14.2816L35.3068 13.7442L37.3387 21.4032L36.9062 21.0834L38.7532 21.0569C38.8346 21.3636 38.8631 21.6168 38.8388 21.8163C38.8145 22.0159 38.7294 22.2413 38.5836 22.4924L33.0355 23.9643ZM49.3009 19.6491C49.1094 18.9274 49.146 18.4832 49.4108 18.3164L50.5408 17.5531L50.3508 18.038L48.5702 11.3262C48.125 9.64823 47.3161 8.96482 46.1433 9.27595C45.4938 9.44827 44.915 9.81427 44.4068 10.374C43.8987 10.9336 43.5198 11.5073 43.2701 12.095L42.5935 10.855L42.9995 10.7473C43.5238 9.73914 44.1749 8.88084 44.9525 8.1724C45.7482 7.45918 46.5521 6.99487 47.364 6.77947C48.3924 6.50663 49.2369 6.66883 49.8975 7.26608C50.5713 7.8405 51.0973 8.84039 51.4754 10.2657L53.2632 17.0046L52.838 16.7119L54.9915 16.7489C55.0728 17.0556 55.1014 17.3088 55.0771 17.5084C55.0528 17.7079 54.9767 17.9309 54.8489 18.1772L49.3009 19.6491ZM61.9295 17.1117C60.7567 17.3393 59.6716 17.2838 58.6741 16.9449C57.6949 16.6026 56.8708 16.0304 56.2017 15.2286C55.5475 14.4048 55.1047 13.3974 54.8736 12.2063C54.6175 10.8869 54.6721 9.64982 55.0374 8.49505C55.4175 7.31841 56.0345 6.33347 56.8883 5.54025C57.7386 4.72871 58.7593 4.20735 59.9504 3.97616C60.9766 3.77699 61.908 3.82438 62.7447 4.11835C63.5814 4.41232 64.2869 4.91238 64.8613 5.61854C65.4357 6.3247 65.8261 7.20919 66.0324 8.27202C66.1106 8.67517 66.0998 8.96249 66 9.13398C65.8966 9.28715 65.7258 9.38685 65.4876 9.43309L56.8842 11.103L56.6654 9.97599L63.4998 8.44982L63.2447 8.89866C63.1106 8.01196 62.8732 7.27843 62.5323 6.69807C62.2098 6.11416 61.8242 5.69462 61.3753 5.43947C60.9229 5.16599 60.431 5.08082 59.8996 5.18397C59.0384 5.35113 58.4164 5.91869 58.0339 6.88665C57.6513 7.85462 57.6094 9.10823 57.9081 10.6475C58.1215 11.747 58.4623 12.6696 58.9303 13.4155C59.3947 14.143 59.972 14.6679 60.6621 14.9903C61.3669 15.2909 62.1591 15.3558 63.0387 15.1851C63.7351 15.0499 64.3645 14.7661 64.9271 14.3337C65.5044 13.8793 66.0093 13.2965 66.4417 12.5851L67.0247 13.3846C66.7211 13.976 66.3061 14.5319 65.7796 15.0524C65.2532 15.5729 64.6631 16.0107 64.0095 16.3657C63.3558 16.7208 62.6625 16.9694 61.9295 17.1117ZM74.3302 21.8062C74.2591 21.0817 74.3667 20.6491 74.653 20.5085L76.184 19.7675L75.9239 20.2713L74.2862 3.5794L74.6616 3.96458L73.0099 3.76089C72.7053 3.71575 72.5166 3.32162 72.4437 2.57853C73.2484 2.36829 73.8709 2.21343 74.3113 2.11395C74.7517 2.01447 75.1112 1.95107 75.3899 1.92373C75.9658 1.86722 76.3863 1.94788 76.6515 2.16569C76.9335 2.3631 77.1 2.72189 77.151 3.24206L77.2467 4.21738L77.1549 4.14198L77.4335 4.11464C77.8903 3.2258 78.5231 2.50724 79.3321 1.95896C80.1579 1.39028 81.0259 1.06128 81.9362 0.971973C82.8651 0.880839 83.6885 1.05326 84.4065 1.48924C85.1413 1.90481 85.7382 2.54023 86.1972 3.3955C86.6544 4.23218 86.9423 5.2543 87.0607 6.46183C87.2047 7.92945 87.0611 9.23773 86.6299 10.3867C86.2155 11.5152 85.5553 12.4334 84.6494 13.1412C83.7417 13.8305 82.6284 14.2398 81.3094 14.3692C80.7706 14.4221 80.2171 14.4201 79.6488 14.3633C79.101 14.3233 78.5569 14.2266 78.0167 14.0733L78.385 13.8121L78.9755 19.8312L78.6056 19.5017L80.9983 19.8015C81.0293 20.1173 81.0167 20.3718 80.9607 20.5649C80.9064 20.7765 80.7862 20.9852 80.6001 21.1911L74.3302 21.8062ZM80.6738 13.053C81.9556 12.9272 82.851 12.3986 83.3598 11.4671C83.8872 10.5338 84.0625 9.16618 83.8857 7.36417C83.7326 5.80366 83.3873 4.67464 82.85 3.97711C82.3108 3.261 81.5582 2.95033 80.5922 3.04511C80.072 3.09615 79.6093 3.25409 79.2038 3.51894C78.7966 3.76521 78.4347 4.09144 78.1182 4.49762C77.7999 4.88522 77.4963 5.32765 77.2075 5.82489L77.4708 5.06756L78.2336 12.8422L77.8418 12.2899C78.4337 12.5881 78.9329 12.8017 79.3395 12.9307C79.746 13.0596 80.1908 13.1004 80.6738 13.053ZM94.4361 13.619C93.2415 13.6387 92.1827 13.3949 91.2595 12.8875C90.355 12.3797 89.6432 11.6727 89.1241 10.7665C88.6234 9.84136 88.363 8.77219 88.3429 7.55902C88.3206 6.21521 88.59 5.00658 89.151 3.93314C89.7303 2.84074 90.5094 1.97838 91.4884 1.34609C92.4671 0.695126 93.5631 0.359601 94.7762 0.339511C95.8214 0.322203 96.7303 0.531182 97.503 0.966449C98.2756 1.40172 98.8832 2.01707 99.3258 2.81252C99.7684 3.60797 99.9986 4.54695 100.017 5.62947C100.023 6.04008 99.9626 6.32112 99.8345 6.4726C99.706 6.60541 99.5204 6.67383 99.2778 6.67785L90.515 6.82296L90.496 5.67511L97.4918 5.36324L97.1623 5.76075C97.1848 4.86425 97.0788 4.10057 96.8443 3.4697C96.6285 2.83852 96.3219 2.3582 95.9243 2.02873C95.5265 1.68061 95.057 1.51102 94.5157 1.51999C93.6385 1.53451 92.9272 1.98502 92.3818 2.8715C91.8364 3.75799 91.5767 4.98512 91.6027 6.55291C91.6212 7.67276 91.7959 8.64066 92.1268 9.45663C92.4574 10.2539 92.9344 10.8715 93.5577 11.3092C94.1994 11.728 94.9682 11.9299 95.864 11.9151C96.5733 11.9033 97.2426 11.7336 97.8719 11.4058C98.5196 11.059 99.1183 10.573 99.668 9.94783L100.103 10.8368C99.7008 11.3662 99.1953 11.8413 98.5862 12.2621C97.977 12.6829 97.3197 13.0111 96.6142 13.2468C95.9087 13.4826 95.1826 13.6066 94.4361 13.619ZM101.162 13.2412C101.208 12.5146 101.383 12.1049 101.688 12.0119L103.32 11.4979L102.983 11.9535L103.594 2.2848L103.903 2.72516L102.305 2.25941C102.177 2.2139 102.073 2.08574 101.993 1.87493C101.932 1.64667 101.913 1.35555 101.936 1.00159C102.801 0.925371 103.449 0.872862 103.881 0.844066C104.313 0.815269 104.678 0.810294 104.977 0.82914C105.535 0.864478 105.927 1.02952 106.152 1.32428C106.396 1.60158 106.498 2.06625 106.456 2.71828L106.391 3.75222L106.183 3.48658L106.547 3.50955C107.066 2.68205 107.697 2.02986 108.438 1.55299C109.18 1.0575 109.886 0.830957 110.557 0.873362C111.302 0.920479 111.832 1.1223 112.146 1.47884C112.479 1.83655 112.627 2.29484 112.592 2.85373C112.565 3.28221 112.402 3.64596 112.102 3.94499C111.803 4.24403 111.439 4.38 111.01 4.3529C110.799 3.85322 110.558 3.51072 110.29 3.32538C110.021 3.14005 109.719 3.03678 109.383 3.01558C108.899 2.98495 108.374 3.15748 107.808 3.53317C107.243 3.89023 106.737 4.34456 106.291 4.89616L106.553 4.29552L106.055 12.1758L105.673 11.5625L108.151 12.3083C108.13 12.625 108.077 12.8835 107.989 13.0837C107.922 13.2664 107.779 13.4538 107.561 13.6458L101.162 13.2412ZM116.281 14.9912C114.822 14.7781 113.672 14.3178 112.832 13.6104C112.011 12.9056 111.662 12.1284 111.786 11.2788C111.854 10.817 112.043 10.4863 112.356 10.2866C112.668 10.087 113.027 10.0168 113.433 10.0761C113.951 10.1517 114.352 10.3707 114.639 10.7333C114.499 11.6937 114.588 12.4424 114.905 12.9793C115.244 13.5004 115.829 13.8217 116.66 13.943C117.381 14.0482 117.97 13.955 118.427 13.6634C118.903 13.3745 119.187 12.9161 119.279 12.2881C119.352 11.7893 119.263 11.3614 119.014 11.0043C118.783 10.6498 118.451 10.3373 118.019 10.0666C117.605 9.79873 117.153 9.53465 116.663 9.27442C116.07 8.94259 115.49 8.58441 114.924 8.19986C114.376 7.81802 113.934 7.3573 113.598 6.81772C113.283 6.26237 113.182 5.59681 113.295 4.82103C113.454 3.73126 114.015 2.92652 114.978 2.40682C115.961 1.87134 117.211 1.71419 118.725 1.93537C119.593 2.06215 120.344 2.28491 120.976 2.60366C121.612 2.90395 122.096 3.26712 122.43 3.69317C122.764 4.11923 122.895 4.58162 122.822 5.08033C122.762 5.48669 122.577 5.78969 122.265 5.98935C121.955 6.17054 121.597 6.23147 121.191 6.17213C120.785 6.11279 120.443 5.93089 120.167 5.62645C120.278 4.86915 120.167 4.26823 119.836 3.8237C119.507 3.3607 118.992 3.07795 118.29 2.97545C117.699 2.88914 117.197 2.96678 116.785 3.20836C116.393 3.43417 116.163 3.7872 116.093 4.26744C116.028 4.71074 116.105 5.0898 116.323 5.40462C116.559 5.72214 116.875 6.01351 117.27 6.27873C117.687 6.52817 118.121 6.78031 118.575 7.03515C119.205 7.37237 119.829 7.74654 120.448 8.15765C121.067 8.56875 121.551 9.06391 121.901 9.64313C122.271 10.2066 122.394 10.9131 122.27 11.7628C122.152 12.5755 121.826 13.2543 121.294 13.7991C120.764 14.3254 120.06 14.6941 119.18 14.9052C118.319 15.119 117.352 15.1477 116.281 14.9912ZM127.852 17.3589C126.062 16.9025 124.782 16.0274 124.014 14.7336C123.268 13.4264 123.124 11.8773 123.58 10.0866C123.926 8.72993 124.524 7.59175 125.375 6.67204C126.244 5.75695 127.27 5.13231 128.453 4.79815C129.659 4.45051 130.94 4.44955 132.297 4.79529C133.49 5.09953 134.459 5.60648 135.203 6.31614C135.951 7.00771 136.448 7.85659 136.692 8.86279C136.959 9.8555 136.941 10.9488 136.637 12.1426C136.291 13.4993 135.684 14.6351 134.815 15.5502C133.95 16.4472 132.918 17.0605 131.716 17.3901C130.515 17.7196 129.227 17.7092 127.852 17.3589ZM128.713 16.3645C129.762 16.6319 130.682 16.3848 131.473 15.6233C132.287 14.8483 132.906 13.6287 133.33 11.9646C133.763 10.2643 133.817 8.88138 133.492 7.81596C133.189 6.73707 132.522 6.06624 131.491 5.80348C130.46 5.54073 129.537 5.79685 128.723 6.57185C127.932 7.33337 127.32 8.56429 126.886 10.2646C126.453 11.9649 126.39 13.3455 126.698 14.4063C127.01 15.449 127.682 16.1018 128.713 16.3645ZM135.438 19.0316C135.711 18.3368 136.004 18.0006 136.316 18.023L138.027 18.0339L137.566 18.3642L141.112 9.3484L141.271 9.86224L139.893 8.9291C139.642 8.75029 139.654 8.31347 139.927 7.61861C140.739 7.79763 141.364 7.94307 141.801 8.05493C142.239 8.16679 142.596 8.27737 142.874 8.38669C143.413 8.59849 143.747 8.8704 143.877 9.20241C144.007 9.53443 143.963 9.97838 143.745 10.5343L143.447 11.2899L143.348 11.1605L143.661 11.2835C144.698 10.7887 145.748 10.4897 146.811 10.3865C147.875 10.2833 148.815 10.3923 149.632 10.7134C151.647 11.5059 152.114 13.2745 151.035 16.0192L148.483 22.5074L148.314 22.0196L150.027 23.3252C149.911 23.6205 149.784 23.8414 149.646 23.9878C149.526 24.141 149.341 24.279 149.092 24.4017L143.75 22.3008C144.024 21.606 144.316 21.2698 144.628 21.2922L145.965 21.3365L145.53 21.677L148.092 15.1627C148.728 13.5472 148.446 12.5037 147.247 12.0323C146.761 11.841 146.254 11.752 145.728 11.7655C145.201 11.7789 144.688 11.8582 144.19 12.0032C143.716 12.1376 143.304 12.3168 142.955 12.5407L143.322 12.1434L140.422 19.5175L140.263 19.0037L141.767 20.0765C141.651 20.3718 141.524 20.5927 141.386 20.739C141.248 20.8854 141.046 21.0166 140.78 21.1325L135.438 19.0316ZM153.151 26.4816C152.362 26.1443 151.804 25.6217 151.477 24.9137C151.167 24.2131 151.181 23.4679 151.518 22.6783C151.936 21.6998 152.595 21.0372 153.494 20.6906C154.4 20.3267 155.542 20.2666 156.92 20.51L160.623 21.1785L160.171 21.3812L160.93 19.6045C161.312 18.7119 161.449 18.0095 161.343 17.4973C161.245 16.968 160.895 16.575 160.294 16.3184C159.573 16.0104 158.925 16.0075 158.349 16.3097C157.781 16.5947 157.294 17.1884 156.888 18.0909C156.741 18.1499 156.55 18.1697 156.314 18.1504C156.096 18.1384 155.884 18.0884 155.678 18.0004C155.301 17.8391 155.044 17.6078 154.909 17.3064C154.791 17.0125 154.805 16.6938 154.952 16.3505C155.201 15.7668 155.636 15.3435 156.256 15.0805C156.875 14.8175 157.609 14.7149 158.458 14.7727C159.323 14.8379 160.219 15.0685 161.146 15.4644C162.519 16.051 163.406 16.8258 163.807 17.7885C164.215 18.7342 164.129 19.885 163.55 21.2412L161.13 26.906C160.998 27.215 160.959 27.4724 161.013 27.6782C161.075 27.8668 161.226 28.0125 161.466 28.1152C161.655 28.1958 161.871 28.2372 162.113 28.2394C162.356 28.2416 162.564 28.2291 162.738 28.2019L162.596 29.1764C162.123 29.3804 161.594 29.479 161.008 29.4724C160.422 29.4657 159.906 29.3671 159.46 29.1764C158.808 28.8978 158.378 28.5012 158.172 27.9867C157.973 27.4551 158.016 26.8545 158.302 26.185L158.173 26.13C157.397 26.5697 156.559 26.8207 155.659 26.883C154.76 26.9454 153.924 26.8116 153.151 26.4816ZM155.235 25.4534C155.767 25.6807 156.361 25.7621 157.018 25.6976C157.692 25.6404 158.316 25.4399 158.889 25.0961L158.404 25.5893L159.933 22.0102L160.297 22.2267L157.282 21.7302C156.571 21.5889 155.963 21.6338 155.458 21.8647C154.954 22.0957 154.584 22.4859 154.35 23.0352C154.122 23.5674 154.089 24.0503 154.248 24.4839C154.408 24.9176 154.737 25.2407 155.235 25.4534ZM163.278 30.4014C163.419 30.0359 163.559 29.7796 163.696 29.6326C163.84 29.4682 163.992 29.3868 164.151 29.3886L165.992 29.442L165.553 29.7222L171.901 13.354L172.063 13.8671L170.549 12.8899C170.298 12.7123 170.307 12.2754 170.577 11.5792C171.262 11.7246 171.866 11.869 172.391 12.0125C172.923 12.1386 173.441 12.2995 173.946 12.4953C174.868 12.853 175.12 13.5714 174.702 14.6504L168.455 30.7575L168.274 30.2967L170.264 31.6692C170.149 31.9651 170.023 32.1865 169.886 32.3336C169.767 32.4874 169.574 32.6229 169.308 32.7401L163.278 30.4014ZM179.569 36.6566C178.75 36.3957 178.145 35.9284 177.753 35.2546C177.378 34.5865 177.321 33.8434 177.582 33.0253C177.905 32.0116 178.498 31.2896 179.36 30.8592C180.228 30.4111 181.359 30.2428 182.754 30.3546L186.504 30.6688L186.073 30.9135L186.66 29.0728C186.955 28.1481 187.025 27.4358 186.871 26.936C186.723 26.4184 186.338 26.0604 185.715 25.8619C184.968 25.6237 184.323 25.6822 183.778 26.0376C183.239 26.3752 182.811 27.0125 182.492 27.9494C182.352 28.022 182.163 28.0599 181.927 28.063C181.709 28.0717 181.493 28.0421 181.28 27.974C180.888 27.8492 180.611 27.6433 180.448 27.3561C180.303 27.0747 180.287 26.7561 180.4 26.4004C180.593 25.7957 180.985 25.3331 181.578 25.0125C182.17 24.6919 182.891 24.5202 183.74 24.4973C184.608 24.4801 185.522 24.6247 186.482 24.931C187.905 25.3847 188.861 26.0718 189.352 26.9923C189.847 27.8949 189.871 29.0487 189.423 30.4537L187.551 36.3224C187.449 36.6425 187.435 36.9025 187.509 37.1022C187.588 37.2842 187.752 37.4149 188.001 37.4943C188.196 37.5567 188.415 37.5775 188.657 37.5566C188.899 37.5358 189.105 37.5036 189.275 37.46L189.226 38.4436C188.775 38.6915 188.257 38.8399 187.673 38.8888C187.09 38.9378 186.567 38.8885 186.104 38.741C185.428 38.5255 184.963 38.1714 184.709 37.6789C184.46 37.1685 184.447 36.5665 184.668 35.8729L184.534 35.8304C183.803 36.3417 182.993 36.6711 182.103 36.8184C181.214 36.9658 180.369 36.9118 179.569 36.6566ZM181.545 35.4354C182.096 35.6113 182.696 35.6359 183.344 35.5094C184.009 35.3886 184.611 35.1299 185.149 34.7332L184.713 35.2702L185.896 31.5622L186.279 31.7432L183.23 31.5349C182.509 31.4617 181.908 31.564 181.427 31.8418C180.947 32.1196 180.616 32.543 180.434 33.1121C180.259 33.6634 180.271 34.1474 180.471 34.5639C180.671 34.9804 181.029 35.2709 181.545 35.4354ZM190.515 39.7026C190.695 38.9972 190.943 38.6272 191.26 38.5925L192.959 38.3902L192.543 38.7753L194.939 29.3881L195.16 29.8782L193.677 29.1239C193.559 29.0554 193.481 28.9102 193.441 28.6881C193.424 28.4526 193.459 28.1631 193.547 27.8194C194.411 27.9051 195.059 27.9739 195.488 28.0258C195.918 28.0777 196.278 28.1406 196.567 28.2144C197.11 28.3529 197.464 28.5877 197.63 28.9191C197.819 29.2369 197.832 29.7123 197.671 30.3454L197.414 31.3492L197.26 31.0497L197.612 31.1397C198.277 30.423 199.017 29.8992 199.834 29.5681C200.655 29.219 201.391 29.1275 202.042 29.2937C202.766 29.4783 203.249 29.7749 203.491 30.1836C203.752 30.5968 203.813 31.0748 203.675 31.6174C203.568 32.0334 203.34 32.3605 202.991 32.5988C202.641 32.837 202.258 32.903 201.842 32.7969C201.727 32.2666 201.554 31.8855 201.325 31.6535C201.095 31.4215 200.817 31.2639 200.492 31.1808C200.021 31.0608 199.473 31.1329 198.847 31.3969C198.226 31.6429 197.645 31.9955 197.104 32.4546L197.473 31.9132L195.521 39.564L195.259 38.8904L197.555 40.0832C197.477 40.3907 197.376 40.6347 197.253 40.8152C197.153 40.9822 196.977 41.1398 196.728 41.288L190.515 39.7026ZM206.136 43.688C205.128 43.4925 204.447 43.037 204.091 42.3215C203.739 41.5877 203.678 40.6252 203.91 39.4341L206.085 28.2192C206.341 28.0786 206.646 27.9762 207 27.9119C207.377 27.8328 207.768 27.7757 208.175 27.7404C208.581 27.7051 208.962 27.7029 209.317 27.7338L207.019 39.5809C206.88 40.2956 206.888 40.8392 207.044 41.2117C207.2 41.5842 207.544 41.822 208.075 41.9251C208.46 41.9997 208.878 42.0046 209.328 41.9398C209.799 41.8602 210.28 41.6872 210.769 41.4208L211.06 42.4185C210.78 42.6874 210.369 42.9405 209.829 43.1779C209.307 43.4189 208.72 43.5999 208.069 43.7208C207.44 43.8269 206.796 43.816 206.136 43.688ZM211.459 33.4543L203.524 31.7155C203.585 31.404 203.678 31.1179 203.805 30.8572C203.932 30.5966 204.079 30.4255 204.247 30.344L212.453 31.5651C212.471 31.6638 212.479 31.7699 212.476 31.8834C212.477 31.9786 212.467 32.0812 212.445 32.1911C212.374 32.5576 212.25 32.8567 212.071 33.0884C211.915 33.3053 211.711 33.4273 211.459 33.4543ZM211.647 44.3238C211.748 43.5651 211.951 43.1684 212.257 43.1337L214.059 42.7515L213.699 43.1273L214.988 33.4125L215.266 33.8731L213.565 33.2801C213.276 33.1853 213.182 32.7586 213.283 31.9999C213.982 31.9797 214.604 31.9775 215.148 31.9932C215.692 32.0089 216.242 32.0536 216.797 32.1273C217.759 32.255 218.165 32.8833 218.015 34.012L216.763 43.4493L216.478 43.0442L218.735 43.9088C218.694 44.2234 218.624 44.4683 218.525 44.6435C218.445 44.8212 218.29 44.9983 218.059 45.1748L211.647 44.3238ZM216.906 29.5998C216.351 29.5261 215.946 29.3123 215.692 28.9584C215.438 28.6045 215.345 28.1686 215.414 27.6504C215.48 27.1508 215.71 26.767 216.103 26.4991C216.499 26.2127 216.919 26.099 217.363 26.1579C217.937 26.2341 218.351 26.4491 218.605 26.803C218.878 27.1593 218.98 27.5965 218.911 28.1146C218.845 28.6142 218.605 29.006 218.19 29.29C217.797 29.5579 217.369 29.6612 216.906 29.5998ZM221.019 45.4416C221.065 44.715 221.24 44.3053 221.545 44.2124L223.177 43.6985L222.843 44.0982L223.478 34.0663C223.562 32.7436 223.825 31.5445 224.267 30.469C224.71 29.3934 225.273 28.4752 225.957 27.7142C226.642 26.9347 227.399 26.356 228.227 25.9783C229.056 25.5819 229.909 25.4114 230.785 25.4669C231.399 25.5058 231.857 25.6657 232.157 25.9466C232.476 26.2286 232.622 26.5839 232.594 27.0124C232.585 27.1614 232.546 27.3273 232.479 27.5101C232.412 27.6742 232.336 27.8377 232.251 28.0007L230.659 27.8998C229.802 27.8455 229.092 27.9689 228.531 28.27C227.971 28.5525 227.536 29.0581 227.228 29.7868C226.92 30.5154 226.726 31.5225 226.644 32.8079L225.912 44.3767L225.558 43.7651L227.922 44.5321C227.902 44.8488 227.849 45.0979 227.762 45.2795C227.676 45.4611 227.524 45.6478 227.306 45.8398L221.019 45.4416ZM229.66 35.2434L221.457 34.5275C221.477 34.2108 221.533 33.9151 221.626 33.6403C221.718 33.3656 221.842 33.1771 221.998 33.0748L230.376 33.2406C230.426 33.3373 230.457 33.4421 230.469 33.5551C230.5 33.6506 230.512 33.7542 230.505 33.866C230.482 34.2386 230.396 34.5512 230.249 34.8037C230.104 35.0377 229.907 35.1842 229.66 35.2434ZM233.697 46.1512C232.839 46.1788 232.112 45.9407 231.517 45.4369C230.94 44.9325 230.638 44.2512 230.611 43.393C230.576 42.3296 230.894 41.4509 231.562 40.757C232.23 40.0445 233.24 39.5078 234.592 39.1468L238.231 38.1893L237.907 38.5639L237.845 36.6329C237.814 35.6627 237.642 34.9679 237.33 34.5484C237.017 34.1102 236.534 33.9016 235.881 33.9226C235.097 33.9479 234.508 34.2189 234.114 34.7359C233.719 35.2342 233.528 35.978 233.541 36.9674C233.433 37.083 233.268 37.1817 233.047 37.2635C232.844 37.3447 232.63 37.389 232.407 37.3962C231.996 37.4094 231.666 37.3079 231.416 37.0918C231.185 36.8752 231.064 36.5803 231.052 36.2071C231.031 35.5728 231.246 35.0056 231.697 34.5055C232.148 34.0054 232.77 33.6025 233.563 33.2968C234.375 32.9906 235.285 32.8212 236.292 32.7888C237.785 32.7408 238.916 33.0686 239.686 33.7722C240.455 34.4571 240.863 35.5366 240.911 37.0105L241.109 43.1673C241.119 43.5031 241.193 43.7529 241.329 43.9166C241.464 44.0617 241.663 44.13 241.924 44.1216C242.129 44.115 242.342 44.0614 242.563 43.9609C242.784 43.8605 242.967 43.7612 243.114 43.6631L243.396 44.6065C243.054 44.991 242.616 45.3039 242.082 45.5452C241.548 45.7865 241.038 45.915 240.553 45.9306C239.844 45.9534 239.288 45.7752 238.883 45.396C238.478 44.9982 238.264 44.4354 238.241 43.7078L238.101 43.7123C237.582 44.4387 236.929 45.02 236.14 45.4563C235.351 45.8925 234.536 46.1242 233.697 46.1512ZM235.151 44.3395C235.73 44.3209 236.303 44.1437 236.871 43.8079C237.458 43.4715 237.939 43.0265 238.313 42.4728L238.082 43.1246L237.957 39.2346L238.378 39.2771L235.435 40.1002C234.731 40.2722 234.199 40.5695 233.839 40.992C233.479 41.4144 233.309 41.9242 233.328 42.5212C233.346 43.0995 233.52 43.5515 233.848 43.8772C234.176 44.2028 234.61 44.3569 235.151 44.3395ZM251.398 44.6149C250.2 44.8074 249.11 44.7274 248.127 44.3748C247.141 44.0039 246.326 43.4068 245.684 42.5837C245.056 41.7392 244.644 40.6995 244.445 39.4646C244.226 38.1008 244.318 36.8477 244.72 35.7054C245.123 34.5631 245.775 33.6171 246.675 32.8674C247.591 32.0964 248.676 31.6102 249.929 31.4088C250.832 31.2637 251.676 31.2794 252.46 31.4559C253.242 31.6139 253.885 31.9077 254.389 32.3372C254.889 32.7483 255.187 33.2487 255.282 33.8385C255.35 34.2624 255.265 34.6163 255.027 34.9003C254.808 35.1814 254.468 35.3589 254.007 35.4329C253.804 35.4655 253.606 35.4689 253.413 35.4433C253.217 35.3991 253.019 35.3458 252.82 35.2833C252.66 34.288 252.336 33.565 251.848 33.1141C251.356 32.6447 250.714 32.4737 249.922 32.601C248.89 32.7668 248.167 33.3273 247.753 34.2823C247.339 35.2374 247.263 36.5258 247.523 38.1477C247.805 39.8986 248.348 41.1631 249.154 41.9411C249.956 42.7008 251.021 42.974 252.348 42.7608C253.049 42.6483 253.708 42.4005 254.327 42.0174C254.946 41.6344 255.528 41.1345 256.072 40.5178L256.624 41.3082C256.295 41.8525 255.857 42.3578 255.308 42.8242C254.774 43.2691 254.174 43.6492 253.506 43.9644C252.838 44.2797 252.135 44.4965 251.398 44.6149ZM263.572 42.0185C262.581 42.2872 261.768 42.1788 261.134 41.6932C260.494 41.1897 260.016 40.3524 259.698 39.1813L256.709 28.1555C256.876 27.9167 257.105 27.6903 257.395 27.4762C257.698 27.2393 258.024 27.0155 258.373 26.8048C258.722 26.5941 259.063 26.4243 259.395 26.2955L262.554 37.9429C262.744 38.6455 262.992 39.1297 263.296 39.3953C263.6 39.661 264.013 39.723 264.536 39.5813C264.914 39.4787 265.291 39.2992 265.666 39.0427C266.054 38.7633 266.409 38.3963 266.731 37.9416L267.432 38.7089C267.299 39.0738 267.042 39.4819 266.662 39.9332C266.299 40.3796 265.853 40.8005 265.322 41.1959C264.804 41.5684 264.22 41.8426 263.572 42.0185ZM263.839 30.4866L255.951 32.4225C255.868 32.1162 255.826 31.8182 255.824 31.5284C255.823 31.2386 255.88 31.0202 255.995 30.873L263.899 28.3526C263.959 28.4329 264.013 28.5247 264.06 28.6279C264.103 28.7131 264.139 28.8098 264.168 28.9179C264.266 29.2782 264.286 29.6016 264.228 29.888C264.183 30.1515 264.054 30.351 263.839 30.4866ZM273.676 38.5973C272.3 39.1266 271.072 39.2886 269.993 39.0834C268.932 38.8716 268.247 38.3649 267.939 37.5634C267.771 37.1279 267.775 36.7466 267.949 36.4196C268.123 36.0926 268.402 35.8554 268.785 35.708C269.273 35.5205 269.731 35.5145 270.158 35.6901C270.507 36.5961 270.951 37.2053 271.491 37.5176C272.042 37.8058 272.709 37.7991 273.493 37.4977C274.173 37.2364 274.641 36.8666 274.897 36.3882C275.17 35.903 275.193 35.3643 274.965 34.7719C274.784 34.3015 274.497 33.9718 274.105 33.7827C273.73 33.587 273.287 33.4771 272.778 33.4529C272.286 33.422 271.763 33.4133 271.208 33.4266C270.528 33.4279 269.848 33.3997 269.166 33.342C268.501 33.2776 267.89 33.0926 267.332 32.7869C266.785 32.4572 266.371 31.9264 266.09 31.1947C265.695 30.1667 265.789 29.1904 266.374 28.2657C266.969 27.3169 267.981 26.5679 269.41 26.0185C270.228 25.7037 270.992 25.5302 271.699 25.4981C272.4 25.4486 273.001 25.5277 273.501 25.7355C274 25.9433 274.341 26.2824 274.522 26.7528C274.669 27.1361 274.656 27.4913 274.481 27.8183C274.3 28.1278 274.018 28.3563 273.635 28.5037C273.252 28.6511 272.865 28.6597 272.475 28.5297C272.2 27.8154 271.81 27.3456 271.303 27.1204C270.79 26.8777 270.202 26.8837 269.54 27.1383C268.983 27.3527 268.583 27.6662 268.342 28.079C268.111 28.4676 268.083 28.8884 268.257 29.3414C268.418 29.7596 268.671 30.0524 269.015 30.22C269.377 30.3809 269.795 30.4801 270.269 30.5176C270.755 30.5311 271.257 30.5379 271.777 30.5379C272.492 30.5232 273.219 30.5434 273.96 30.5984C274.701 30.6535 275.366 30.8479 275.954 31.1816C276.554 31.4913 277.007 32.0468 277.315 32.8483C277.61 33.6149 277.659 34.3661 277.462 35.1018C277.258 35.8202 276.824 36.4869 276.161 37.1019C275.515 37.7103 274.687 38.2088 273.676 38.5973Z" fill="#584F49"/>
</svg>
